<svg width="43" height="41" viewBox="0 0 43 41" fill="none" xmlns="http://www.w3.org/2000/svg">
<path d="M21.5 32.3684C21.5 34.5263 22.0375 36.5116 22.9405 38.2811L21.5 39.5974L18.3825 36.749C7.31 26.6716 0 20.0037 0 11.8684C0 5.20053 5.203 0 11.825 0C15.566 0 19.1565 1.74789 21.5 4.48842C23.8435 1.74789 27.434 0 31.175 0C37.797 0 43 5.20053 43 11.8684C43 14.9542 41.925 17.8242 40.033 20.7374C38.3345 19.9174 36.421 19.4211 34.4 19.4211C27.2835 19.4211 21.5 25.2258 21.5 32.3684ZM36.55 23.7368H32.25V30.2105H25.8V34.5263H32.25V41H36.55V34.5263H43V30.2105H36.55V23.7368Z" fill="#FF0000"/>
</svg>
